<mxfile host="app.diagrams.net" modified="2023-05-26T10:50:41.935Z" agent="Mozilla/5.0 (Windows NT 10.0; Win64; x64) AppleWebKit/537.36 (KHTML, like Gecko) Chrome/113.0.0.0 Safari/537.36" etag="aMraBKBXMqOhCdOSJTAP" version="21.3.4" type="device">
  <diagram name="Strona-1" id="S6mS8mE3Q9tH057i0CRc">
    <mxGraphModel dx="1674" dy="768" grid="1" gridSize="10" guides="1" tooltips="1" connect="1" arrows="1" fold="1" page="1" pageScale="1" pageWidth="827" pageHeight="1169" math="0" shadow="0">
      <root>
        <mxCell id="0" />
        <mxCell id="1" parent="0" />
        <mxCell id="h5S3qbaRXKo_6D7XIX6F-2" value="Użytkownik" style="shape=umlLifeline;perimeter=lifelinePerimeter;whiteSpace=wrap;html=1;container=1;dropTarget=0;collapsible=0;recursiveResize=0;outlineConnect=0;portConstraint=eastwest;newEdgeStyle={&quot;edgeStyle&quot;:&quot;elbowEdgeStyle&quot;,&quot;elbow&quot;:&quot;vertical&quot;,&quot;curved&quot;:0,&quot;rounded&quot;:0};participant=umlActor;" vertex="1" parent="1">
          <mxGeometry x="70" width="20" height="550" as="geometry" />
        </mxCell>
        <mxCell id="h5S3qbaRXKo_6D7XIX6F-3" value="Interfejs Użytkownika" style="shape=umlLifeline;perimeter=lifelinePerimeter;whiteSpace=wrap;html=1;container=1;dropTarget=0;collapsible=0;recursiveResize=0;outlineConnect=0;portConstraint=eastwest;newEdgeStyle={&quot;edgeStyle&quot;:&quot;elbowEdgeStyle&quot;,&quot;elbow&quot;:&quot;vertical&quot;,&quot;curved&quot;:0,&quot;rounded&quot;:0};participant=umlBoundary;" vertex="1" parent="1">
          <mxGeometry x="180" width="50" height="550" as="geometry" />
        </mxCell>
        <mxCell id="h5S3qbaRXKo_6D7XIX6F-8" value="" style="html=1;points=[];perimeter=orthogonalPerimeter;outlineConnect=0;targetShapes=umlLifeline;portConstraint=eastwest;newEdgeStyle={&quot;edgeStyle&quot;:&quot;elbowEdgeStyle&quot;,&quot;elbow&quot;:&quot;vertical&quot;,&quot;curved&quot;:0,&quot;rounded&quot;:0};" vertex="1" parent="h5S3qbaRXKo_6D7XIX6F-3">
          <mxGeometry x="20" y="70" width="10" height="410" as="geometry" />
        </mxCell>
        <mxCell id="h5S3qbaRXKo_6D7XIX6F-4" value="Chatbox" style="shape=umlLifeline;perimeter=lifelinePerimeter;whiteSpace=wrap;html=1;container=1;dropTarget=0;collapsible=0;recursiveResize=0;outlineConnect=0;portConstraint=eastwest;newEdgeStyle={&quot;edgeStyle&quot;:&quot;elbowEdgeStyle&quot;,&quot;elbow&quot;:&quot;vertical&quot;,&quot;curved&quot;:0,&quot;rounded&quot;:0};participant=umlControl;" vertex="1" parent="1">
          <mxGeometry x="340" width="40" height="550" as="geometry" />
        </mxCell>
        <mxCell id="h5S3qbaRXKo_6D7XIX6F-11" value="" style="html=1;points=[];perimeter=orthogonalPerimeter;outlineConnect=0;targetShapes=umlLifeline;portConstraint=eastwest;newEdgeStyle={&quot;edgeStyle&quot;:&quot;elbowEdgeStyle&quot;,&quot;elbow&quot;:&quot;vertical&quot;,&quot;curved&quot;:0,&quot;rounded&quot;:0};" vertex="1" parent="h5S3qbaRXKo_6D7XIX6F-4">
          <mxGeometry x="15" y="90" width="10" height="270" as="geometry" />
        </mxCell>
        <mxCell id="h5S3qbaRXKo_6D7XIX6F-5" value="Analizator Wiadomości" style="shape=umlLifeline;perimeter=lifelinePerimeter;whiteSpace=wrap;html=1;container=1;dropTarget=0;collapsible=0;recursiveResize=0;outlineConnect=0;portConstraint=eastwest;newEdgeStyle={&quot;edgeStyle&quot;:&quot;elbowEdgeStyle&quot;,&quot;elbow&quot;:&quot;vertical&quot;,&quot;curved&quot;:0,&quot;rounded&quot;:0};participant=umlControl;" vertex="1" parent="1">
          <mxGeometry x="470" width="40" height="550" as="geometry" />
        </mxCell>
        <mxCell id="h5S3qbaRXKo_6D7XIX6F-14" value="" style="html=1;points=[];perimeter=orthogonalPerimeter;outlineConnect=0;targetShapes=umlLifeline;portConstraint=eastwest;newEdgeStyle={&quot;edgeStyle&quot;:&quot;elbowEdgeStyle&quot;,&quot;elbow&quot;:&quot;vertical&quot;,&quot;curved&quot;:0,&quot;rounded&quot;:0};" vertex="1" parent="h5S3qbaRXKo_6D7XIX6F-5">
          <mxGeometry x="15" y="110" width="10" height="40" as="geometry" />
        </mxCell>
        <mxCell id="h5S3qbaRXKo_6D7XIX6F-6" value="Baza Wiedzy" style="shape=umlLifeline;perimeter=lifelinePerimeter;whiteSpace=wrap;html=1;container=1;dropTarget=0;collapsible=0;recursiveResize=0;outlineConnect=0;portConstraint=eastwest;newEdgeStyle={&quot;edgeStyle&quot;:&quot;elbowEdgeStyle&quot;,&quot;elbow&quot;:&quot;vertical&quot;,&quot;curved&quot;:0,&quot;rounded&quot;:0};participant=umlEntity;" vertex="1" parent="1">
          <mxGeometry x="600" width="40" height="540" as="geometry" />
        </mxCell>
        <mxCell id="h5S3qbaRXKo_6D7XIX6F-7" value="Pracownik" style="shape=umlLifeline;perimeter=lifelinePerimeter;whiteSpace=wrap;html=1;container=1;dropTarget=0;collapsible=0;recursiveResize=0;outlineConnect=0;portConstraint=eastwest;newEdgeStyle={&quot;edgeStyle&quot;:&quot;elbowEdgeStyle&quot;,&quot;elbow&quot;:&quot;vertical&quot;,&quot;curved&quot;:0,&quot;rounded&quot;:0};participant=umlActor;" vertex="1" parent="1">
          <mxGeometry x="750" width="20" height="530" as="geometry" />
        </mxCell>
        <mxCell id="h5S3qbaRXKo_6D7XIX6F-9" value="Wprowadza wiadomość" style="html=1;verticalAlign=bottom;endArrow=block;edgeStyle=elbowEdgeStyle;elbow=vertical;curved=0;rounded=0;" edge="1" target="h5S3qbaRXKo_6D7XIX6F-8" parent="1" source="h5S3qbaRXKo_6D7XIX6F-2">
          <mxGeometry relative="1" as="geometry">
            <mxPoint x="130" y="70" as="sourcePoint" />
            <Array as="points">
              <mxPoint x="120" y="80" />
            </Array>
          </mxGeometry>
        </mxCell>
        <mxCell id="h5S3qbaRXKo_6D7XIX6F-12" value="Przekaz wiadmość" style="html=1;verticalAlign=bottom;endArrow=block;edgeStyle=elbowEdgeStyle;elbow=vertical;curved=0;rounded=0;" edge="1" target="h5S3qbaRXKo_6D7XIX6F-11" parent="1" source="h5S3qbaRXKo_6D7XIX6F-8">
          <mxGeometry relative="1" as="geometry">
            <mxPoint x="285" y="90" as="sourcePoint" />
            <Array as="points">
              <mxPoint x="240" y="100" />
            </Array>
          </mxGeometry>
        </mxCell>
        <mxCell id="h5S3qbaRXKo_6D7XIX6F-15" value="Analizuj Wiadomość" style="html=1;verticalAlign=bottom;endArrow=block;edgeStyle=elbowEdgeStyle;elbow=vertical;curved=0;rounded=0;" edge="1" target="h5S3qbaRXKo_6D7XIX6F-14" parent="1" source="h5S3qbaRXKo_6D7XIX6F-4">
          <mxGeometry relative="1" as="geometry">
            <mxPoint x="415" y="110" as="sourcePoint" />
            <Array as="points">
              <mxPoint x="390" y="120" />
            </Array>
          </mxGeometry>
        </mxCell>
        <mxCell id="h5S3qbaRXKo_6D7XIX6F-16" value="TypWiadmosci" style="html=1;verticalAlign=bottom;endArrow=open;dashed=1;endSize=8;edgeStyle=elbowEdgeStyle;elbow=vertical;curved=0;rounded=0;" edge="1" source="h5S3qbaRXKo_6D7XIX6F-14" parent="1" target="h5S3qbaRXKo_6D7XIX6F-4">
          <mxGeometry relative="1" as="geometry">
            <mxPoint x="415" y="185" as="targetPoint" />
            <Array as="points">
              <mxPoint x="430" y="140" />
            </Array>
          </mxGeometry>
        </mxCell>
        <mxCell id="h5S3qbaRXKo_6D7XIX6F-13" value="Przekaz odpowiedz" style="html=1;verticalAlign=bottom;endArrow=open;dashed=1;endSize=8;edgeStyle=elbowEdgeStyle;elbow=vertical;curved=0;rounded=0;" edge="1" source="h5S3qbaRXKo_6D7XIX6F-11" parent="1" target="h5S3qbaRXKo_6D7XIX6F-8">
          <mxGeometry x="-0.1034" relative="1" as="geometry">
            <mxPoint x="285" y="165" as="targetPoint" />
            <Array as="points">
              <mxPoint x="270" y="230" />
              <mxPoint x="310" y="330" />
            </Array>
            <mxPoint as="offset" />
          </mxGeometry>
        </mxCell>
        <mxCell id="h5S3qbaRXKo_6D7XIX6F-17" value="alt" style="shape=umlFrame;whiteSpace=wrap;html=1;pointerEvents=0;" vertex="1" parent="1">
          <mxGeometry x="20" y="160" width="800" height="230" as="geometry" />
        </mxCell>
        <mxCell id="h5S3qbaRXKo_6D7XIX6F-18" value="Zapytanie" style="text;html=1;strokeColor=none;fillColor=none;align=center;verticalAlign=middle;whiteSpace=wrap;rounded=0;" vertex="1" parent="1">
          <mxGeometry x="80" y="160" width="60" height="30" as="geometry" />
        </mxCell>
        <mxCell id="h5S3qbaRXKo_6D7XIX6F-19" value="" style="html=1;points=[];perimeter=orthogonalPerimeter;outlineConnect=0;targetShapes=umlLifeline;portConstraint=eastwest;newEdgeStyle={&quot;edgeStyle&quot;:&quot;elbowEdgeStyle&quot;,&quot;elbow&quot;:&quot;vertical&quot;,&quot;curved&quot;:0,&quot;rounded&quot;:0};" vertex="1" parent="1">
          <mxGeometry x="615" y="180" width="10" height="40" as="geometry" />
        </mxCell>
        <mxCell id="h5S3qbaRXKo_6D7XIX6F-20" value="Szukaj Odpowiedzi" style="html=1;verticalAlign=bottom;endArrow=block;edgeStyle=elbowEdgeStyle;elbow=vertical;curved=0;rounded=0;" edge="1" target="h5S3qbaRXKo_6D7XIX6F-19" parent="1" source="h5S3qbaRXKo_6D7XIX6F-11">
          <mxGeometry relative="1" as="geometry">
            <mxPoint x="545" y="180" as="sourcePoint" />
            <Array as="points">
              <mxPoint x="430" y="190" />
            </Array>
          </mxGeometry>
        </mxCell>
        <mxCell id="h5S3qbaRXKo_6D7XIX6F-21" value="Zwróć Odpowiedz&amp;nbsp;" style="html=1;verticalAlign=bottom;endArrow=open;dashed=1;endSize=8;edgeStyle=elbowEdgeStyle;elbow=vertical;curved=0;rounded=0;" edge="1" source="h5S3qbaRXKo_6D7XIX6F-19" parent="1" target="h5S3qbaRXKo_6D7XIX6F-11">
          <mxGeometry relative="1" as="geometry">
            <mxPoint x="545" y="255" as="targetPoint" />
            <Array as="points">
              <mxPoint x="460" y="210" />
            </Array>
          </mxGeometry>
        </mxCell>
        <mxCell id="h5S3qbaRXKo_6D7XIX6F-10" value="Wyświetl Odpowiedz" style="html=1;verticalAlign=bottom;endArrow=open;dashed=1;endSize=8;edgeStyle=elbowEdgeStyle;elbow=vertical;curved=0;rounded=0;" edge="1" source="h5S3qbaRXKo_6D7XIX6F-8" parent="1" target="h5S3qbaRXKo_6D7XIX6F-2">
          <mxGeometry relative="1" as="geometry">
            <mxPoint x="130" y="145" as="targetPoint" />
            <Array as="points">
              <mxPoint x="150" y="250" />
            </Array>
          </mxGeometry>
        </mxCell>
        <mxCell id="h5S3qbaRXKo_6D7XIX6F-22" value="" style="endArrow=none;dashed=1;html=1;rounded=0;exitX=0.003;exitY=0.452;exitDx=0;exitDy=0;exitPerimeter=0;entryX=1.004;entryY=0.457;entryDx=0;entryDy=0;entryPerimeter=0;" edge="1" parent="1" source="h5S3qbaRXKo_6D7XIX6F-17" target="h5S3qbaRXKo_6D7XIX6F-17">
          <mxGeometry width="50" height="50" relative="1" as="geometry">
            <mxPoint x="120" y="340" as="sourcePoint" />
            <mxPoint x="170" y="290" as="targetPoint" />
          </mxGeometry>
        </mxCell>
        <mxCell id="h5S3qbaRXKo_6D7XIX6F-23" value="Else" style="rounded=0;whiteSpace=wrap;html=1;" vertex="1" parent="1">
          <mxGeometry x="20" y="290" width="60" height="30" as="geometry" />
        </mxCell>
        <mxCell id="h5S3qbaRXKo_6D7XIX6F-24" value="Polecenie" style="text;html=1;strokeColor=none;fillColor=none;align=center;verticalAlign=middle;whiteSpace=wrap;rounded=0;" vertex="1" parent="1">
          <mxGeometry x="80" y="290" width="60" height="30" as="geometry" />
        </mxCell>
        <mxCell id="h5S3qbaRXKo_6D7XIX6F-25" value="Wykonawca polecenia" style="shape=umlLifeline;perimeter=lifelinePerimeter;whiteSpace=wrap;html=1;container=1;dropTarget=0;collapsible=0;recursiveResize=0;outlineConnect=0;portConstraint=eastwest;newEdgeStyle={&quot;edgeStyle&quot;:&quot;elbowEdgeStyle&quot;,&quot;elbow&quot;:&quot;vertical&quot;,&quot;curved&quot;:0,&quot;rounded&quot;:0};participant=umlActor;" vertex="1" parent="1">
          <mxGeometry x="680" width="20" height="530" as="geometry" />
        </mxCell>
        <mxCell id="h5S3qbaRXKo_6D7XIX6F-26" value="" style="html=1;points=[];perimeter=orthogonalPerimeter;outlineConnect=0;targetShapes=umlLifeline;portConstraint=eastwest;newEdgeStyle={&quot;edgeStyle&quot;:&quot;elbowEdgeStyle&quot;,&quot;elbow&quot;:&quot;vertical&quot;,&quot;curved&quot;:0,&quot;rounded&quot;:0};" vertex="1" parent="h5S3qbaRXKo_6D7XIX6F-25">
          <mxGeometry x="5" y="300" width="10" height="40" as="geometry" />
        </mxCell>
        <mxCell id="h5S3qbaRXKo_6D7XIX6F-27" value="Wykonaj Polecenie" style="html=1;verticalAlign=bottom;endArrow=block;edgeStyle=elbowEdgeStyle;elbow=vertical;curved=0;rounded=0;" edge="1" target="h5S3qbaRXKo_6D7XIX6F-26" parent="1" source="h5S3qbaRXKo_6D7XIX6F-11">
          <mxGeometry relative="1" as="geometry">
            <mxPoint x="510" y="330" as="sourcePoint" />
            <Array as="points">
              <mxPoint x="420" y="310" />
            </Array>
          </mxGeometry>
        </mxCell>
        <mxCell id="h5S3qbaRXKo_6D7XIX6F-28" value="Wynik Polecenia" style="html=1;verticalAlign=bottom;endArrow=open;dashed=1;endSize=8;edgeStyle=elbowEdgeStyle;elbow=vertical;curved=0;rounded=0;" edge="1" source="h5S3qbaRXKo_6D7XIX6F-26" parent="1" target="h5S3qbaRXKo_6D7XIX6F-11">
          <mxGeometry relative="1" as="geometry">
            <mxPoint x="510" y="405" as="targetPoint" />
            <Array as="points">
              <mxPoint x="620" y="330" />
            </Array>
          </mxGeometry>
        </mxCell>
        <mxCell id="h5S3qbaRXKo_6D7XIX6F-29" value="Przekaz wynik" style="html=1;verticalAlign=bottom;endArrow=open;dashed=1;endSize=8;edgeStyle=elbowEdgeStyle;elbow=vertical;curved=0;rounded=0;" edge="1" parent="1" source="h5S3qbaRXKo_6D7XIX6F-11" target="h5S3qbaRXKo_6D7XIX6F-8">
          <mxGeometry x="-0.1034" relative="1" as="geometry">
            <mxPoint x="220" y="240" as="targetPoint" />
            <mxPoint x="365" y="240" as="sourcePoint" />
            <Array as="points">
              <mxPoint x="260" y="330" />
              <mxPoint x="320" y="340" />
            </Array>
            <mxPoint as="offset" />
          </mxGeometry>
        </mxCell>
        <mxCell id="h5S3qbaRXKo_6D7XIX6F-30" value="Wyświetl Wynik" style="html=1;verticalAlign=bottom;endArrow=open;dashed=1;endSize=8;edgeStyle=elbowEdgeStyle;elbow=vertical;curved=0;rounded=0;" edge="1" parent="1" source="h5S3qbaRXKo_6D7XIX6F-8" target="h5S3qbaRXKo_6D7XIX6F-2">
          <mxGeometry x="-0.1667" relative="1" as="geometry">
            <mxPoint x="80" y="360" as="targetPoint" />
            <mxPoint x="200" y="360" as="sourcePoint" />
            <Array as="points">
              <mxPoint x="150" y="360" />
            </Array>
            <mxPoint as="offset" />
          </mxGeometry>
        </mxCell>
        <mxCell id="h5S3qbaRXKo_6D7XIX6F-31" value="opt" style="shape=umlFrame;whiteSpace=wrap;html=1;pointerEvents=0;" vertex="1" parent="1">
          <mxGeometry x="20" y="400" width="770" height="110" as="geometry" />
        </mxCell>
        <mxCell id="h5S3qbaRXKo_6D7XIX6F-32" value="" style="html=1;points=[];perimeter=orthogonalPerimeter;outlineConnect=0;targetShapes=umlLifeline;portConstraint=eastwest;newEdgeStyle={&quot;edgeStyle&quot;:&quot;elbowEdgeStyle&quot;,&quot;elbow&quot;:&quot;vertical&quot;,&quot;curved&quot;:0,&quot;rounded&quot;:0};" vertex="1" parent="1">
          <mxGeometry x="755" y="420" width="10" height="50" as="geometry" />
        </mxCell>
        <mxCell id="h5S3qbaRXKo_6D7XIX6F-33" value="Przekaż Wiadomość" style="html=1;verticalAlign=bottom;endArrow=block;edgeStyle=elbowEdgeStyle;elbow=vertical;curved=0;rounded=0;" edge="1" target="h5S3qbaRXKo_6D7XIX6F-32" parent="1" source="h5S3qbaRXKo_6D7XIX6F-4">
          <mxGeometry relative="1" as="geometry">
            <mxPoint x="685" y="420" as="sourcePoint" />
            <Array as="points">
              <mxPoint x="400" y="430" />
            </Array>
          </mxGeometry>
        </mxCell>
        <mxCell id="h5S3qbaRXKo_6D7XIX6F-34" value="Odpowiedz Pracownika" style="html=1;verticalAlign=bottom;endArrow=open;dashed=1;endSize=8;edgeStyle=elbowEdgeStyle;elbow=vertical;curved=0;rounded=0;" edge="1" source="h5S3qbaRXKo_6D7XIX6F-32" parent="1" target="h5S3qbaRXKo_6D7XIX6F-8">
          <mxGeometry x="0.1081" relative="1" as="geometry">
            <mxPoint x="200" y="460" as="targetPoint" />
            <Array as="points">
              <mxPoint x="430" y="460" />
            </Array>
            <mxPoint as="offset" />
          </mxGeometry>
        </mxCell>
        <mxCell id="h5S3qbaRXKo_6D7XIX6F-35" value="Wyświetl Odpowiedz" style="html=1;verticalAlign=bottom;endArrow=open;dashed=1;endSize=8;edgeStyle=elbowEdgeStyle;elbow=vertical;curved=0;rounded=0;" edge="1" parent="1" source="h5S3qbaRXKo_6D7XIX6F-8" target="h5S3qbaRXKo_6D7XIX6F-2">
          <mxGeometry relative="1" as="geometry">
            <mxPoint x="90" y="260" as="targetPoint" />
            <mxPoint x="210" y="260" as="sourcePoint" />
            <Array as="points">
              <mxPoint x="120" y="470" />
              <mxPoint x="160" y="260" />
            </Array>
          </mxGeometry>
        </mxCell>
      </root>
    </mxGraphModel>
  </diagram>
</mxfile>
